HIERARCHY
ROOT pelvis
{
  OFFSET 0 100 0
  CHANNELS 6 Xposition Yposition Zposition Zrotation Xrotation Yrotation
  JOINT pelvis_right_femur
  {
    OFFSET -10.78128 -3.44521 -0.5502486
    CHANNELS 3 Zrotation Xrotation Yrotation
    JOINT right_femur_tibia
    {
      OFFSET -0.8047443 -44.0398 -0.1307829
      CHANNELS 3 Zrotation Xrotation Yrotation
      JOINT right_tibia_foot
      {
        OFFSET 3.006224 -47.83518 -5
        CHANNELS 3 Zrotation Xrotation Yrotation
        End Site
        {
          OFFSET 0 -5 15
        }
      }
    }
  }
  JOINT pelvis_left_femur
  {
    OFFSET 10.78128 -3.44521 -0.5502486
    CHANNELS 3 Zrotation Xrotation Yrotation
    JOINT left_femur_tibia
    {
      OFFSET 0.8047443 -44.0398 -0.1307829
      CHANNELS 3 Zrotation Xrotation Yrotation
      JOINT left_tibia_foot
      {
        OFFSET -4.370144 -48.10324 -4.275266
        CHANNELS 3 Zrotation Xrotation Yrotation
        End Site
        {
          OFFSET 0 -5 15
        }
      }
    }
  }
  JOINT pelvis_spine1
  {
    OFFSET 0 6.468898 -3.129235
    CHANNELS 3 Zrotation Xrotation Yrotation
    JOINT spine1
    {
      OFFSET 0 23.15396 4.99043
      CHANNELS 3 Zrotation Xrotation Yrotation
      JOINT spine2
      {
        OFFSET 0 20.79997 -5.064912
        CHANNELS 3 Zrotation Xrotation Yrotation
        JOINT neck
        {
          OFFSET 0 14.38658 9.616178
          CHANNELS 3 Zrotation Xrotation Yrotation
          End Site
          {
            OFFSET 0 20 0
          }
        }
      }
      JOINT right_manubrium
      {
        OFFSET -5.722621 16.35077 3.967754
        CHANNELS 3 Zrotation Xrotation Yrotation
        JOINT right_clavicle
        {
          OFFSET -13.16364 1.694482 -4.693211
          CHANNELS 3 Zrotation Xrotation Yrotation
          JOINT right_humerus
          {
            OFFSET -28.5034 -0.3100689 -2.792744
            CHANNELS 3 Zrotation Xrotation Yrotation
            JOINT right_radius
            {
              OFFSET -25.15693 0.02248979 -1.271978
              CHANNELS 3 Zrotation Xrotation Yrotation
              End Site
              {
                OFFSET -15 0 0
              }
            }
          }
        }
      }
      JOINT left_manubrium
      {
        OFFSET 5.722621 16.35077 3.967754
        CHANNELS 3 Zrotation Xrotation Yrotation
        JOINT left_clavicle
        {
          OFFSET 13.16364 1.694482 -4.693211
          CHANNELS 3 Zrotation Xrotation Yrotation
          JOINT left_humerus
          {
            OFFSET 29.39168 -1.063119 -2.237045
            CHANNELS 3 Zrotation Xrotation Yrotation
            JOINT left_radius
            {
              OFFSET 24.59957 -0.9528479 0.9047498
              CHANNELS 3 Zrotation Xrotation Yrotation
              End Site
              {
                OFFSET 15 -0 -0
              }
            }
          }
        }
      }
    }
  }
}
MOTION
Frames: 11
Frame Time: 0.0416666666667
42.71569 101.0293 269.0907 -0.5669614 -0.741871 2.634669 2.917747 8.679662 7.469409 -0 35.83768 -0 10.14494 -8.735339 -3.780089 0.1405013 -31.08342 -4.561397 -0 27.64978 -0 -7.241339 -9.607468 15.40401 0.9375123 -7.028299 8.56315 -2.144431 10.56626 -2.927864 2.798591 20.13981 4.728247 0.8224814 -14.54923 7.555474 0.3842073 -21.77173 10.2163 79.57066 17.42491 -1.671145 -0 0 28.36311 -25.84294 11.68987 14.60647 3.269629 -13.42614 -2.309255 -93.05926 22.00511 26.7065 0 0 -9.957837 -4.104395 5.59456 19.89613
44.33881 101.4288 276.0579 -0.5177088 -0.6812022 3.239557 2.040837 7.617102 6.459156 -0 42.99002 -0 11.42187 -5.690989 -4.92334 -1.277851 -27.87717 -5.725549 -0 28.90468 -0 -7.134406 -10.6323 14.5012 0.6099473 -7.930888 8.30095 -2.166408 10.49916 -2.775346 2.862371 20.34938 4.476392 0.7619736 -14.3438 7.378647 0.7929587 -20.65743 10.12992 80.57906 17.64814 -2.915312 -0 0 25.80937 -25.3834 11.66323 13.91083 3.243361 -13.44526 -2.371585 -92.16456 22.44906 25.62468 0 0 -9.896286 -3.874794 5.748136 19.6385
46.12484 102.1602 282.7479 -0.4437505 -0.590505 4.169065 1.683485 3.737459 5.629446 -0 51.26905 -0 11.70382 -3.953859 -6.481431 -2.496535 -23.75222 -6.715759 -0 28.93258 -0 -6.860823 -12.64771 13.59811 0.5858274 -8.751058 7.552301 -2.249816 10.4345 -2.835227 2.731029 20.70481 4.427257 0.5932012 -14.10213 7.319221 1.405819 -19.66685 10.19163 81.57024 18.10339 -4.358468 -0 0 22.57158 -24.65802 11.7589 12.96616 2.914098 -13.80814 -2.654019 -90.85477 22.96935 23.74775 0 0 -10.16842 -3.503203 5.975567 19.19521
47.79339 103.524 289.0505 -0.3738902 -0.5026558 5.071452 1.683794 -4.859773 4.972117 -0 57.09154 -0 10.60461 -5.629175 -7.823598 -3.387083 -19.03334 -7.435363 -0 27.93984 -0 -6.75983 -14.31506 12.74323 0.5441661 -9.467294 6.500526 -2.210421 10.48034 -3.096453 2.467948 21.29899 4.524483 0.3528265 -13.73075 7.355232 2.294945 -18.62427 10.2811 82.91286 18.76103 -6.096568 -0 0 19.23566 -23.72491 11.94106 12.01887 2.409416 -14.44453 -3.068061 -89.22625 23.5057 21.1939 0 0 -10.69872 -3.000425 6.284802 18.59853
49.34469 104.7987 294.8563 -0.3034742 -0.4108672 5.99951 1.644657 -11.21345 4.779968 -0 60.6308 -0 9.698011 -5.746164 -8.795587 -3.976857 -14.62507 -8.144253 -0 26.06576 -0 -6.878312 -15.46112 11.91148 0.3432488 -9.822762 5.170754 -1.947069 10.3868 -3.768729 2.2411 21.94954 4.680163 0.1488929 -13.14431 7.481805 2.746413 -17.64711 10.24474 84.41501 19.4253 -7.859981 -0 0 16.56628 -22.83252 12.08775 11.33969 2.222457 -15.2794 -3.68761 -87.40994 23.98316 17.90484 0 0 -11.76705 -2.378639 6.660446 17.81185
50.81157 105.9813 300.1962 -0.173729 -0.2399116 7.732127 2.131639 -18.65503 4.922357 -0 58.61957 -0 7.952239 -6.378317 -8.644437 -4.552746 -9.364615 -8.369902 -0 23.04638 -0 -7.096612 -16.47583 10.93658 -0.1327111 -9.516256 3.51087 -1.505796 10.29142 -5.064733 2.190102 22.612 4.742863 0.06045 -12.44186 7.615822 2.671479 -16.70433 9.815767 85.95852 19.93947 -9.685902 -0 0 14.57038 -22.07683 12.11441 10.91554 2.381214 -16.22825 -4.38358 -85.46827 24.32975 14.14843 0 0 -13.40123 -1.632485 7.090234 16.76062
51.99189 106.3 305.5288 -0.02566833 -0.03634081 9.772443 1.976576 -22.35206 4.86642 -0 53.31202 -0 6.587735 -5.637067 -8.491808 -4.619251 -4.662604 -8.553471 -0 19.93103 -0 -7.323672 -17.66911 9.746259 -0.9708805 -9.391444 2.059857 -0.8967333 9.564628 -6.477881 2.315671 22.65176 4.83445 0.03561085 -12.25388 7.914948 2.186111 -15.58713 9.262165 87.27279 20.30084 -11.62308 -0 0 12.87613 -21.52289 12.03138 10.65196 3.018274 -16.84455 -5.163121 -83.56368 24.53465 10.43353 0 0 -15.42682 -0.7975917 7.57047 15.44047
53.17056 106.0751 310.6292 0.1328065 0.1937786 12.0475 1.323014 -27.1102 4.914676 -0 45.20811 -0 5.325752 -5.684114 -9.104963 -4.564294 -0.4395994 -8.770246 -0 17.6784 -0 -7.507525 -18.98936 8.535901 -1.660811 -9.089923 0.8849087 -0.2537643 9.084606 -7.535686 2.658083 22.81632 4.650373 0.162308 -11.99207 8.032977 1.672131 -14.28305 8.6108 88.54869 20.49158 -13.66359 -0 0 11.06324 -20.9027 11.81892 10.21889 3.699335 -17.90097 -5.454762 -81.50392 24.56758 6.329049 0 0 -18.06802 0.2141167 8.166929 13.80031
54.41013 105.1987 316.3199 0.2687679 0.4030754 14.08802 0.4732655 -31.39072 4.75362 -0 36.49368 -0 3.953002 -6.120858 -10.56919 -4.39405 3.464177 -9.123695 -0 16.71649 -0 -7.680807 -20.36793 7.398904 -2.333501 -8.846191 -0.1300195 0.2579239 8.649606 -8.469355 3.116325 22.74483 4.301653 0.3708871 -11.90935 8.014314 1.010711 -12.95553 7.980561 89.57102 20.60568 -15.60283 -0 0 9.135721 -20.31934 11.55538 9.738657 4.539929 -18.81611 -5.4817 -79.687 24.43601 2.705378 0 0 -20.82227 1.363411 8.825067 11.97152
55.27944 104.1074 321.902 0.3346365 0.5069707 15.1002 0.2037625 -35.07457 3.728752 -0 29.52359 -0 2.318999 -7.283795 -11.7221 -4.066371 6.52959 -9.510058 -0 17.25223 -0 -7.916587 -21.47802 6.579541 -2.864473 -8.56624 -0.3091931 0.7488205 8.297022 -8.63996 3.480202 22.78313 3.896015 0.5673725 -11.8385 7.830636 0.8126145 -11.93207 7.636109 90.36583 20.7245 -17.1636 -0 0 6.973287 -19.66037 11.29595 9.085625 5.22891 -19.59352 -5.187967 -78.07705 24.21061 -0.5908165 0 0 -23.30777 2.503074 9.444928 10.11982
56.18488 102.895 327.468 0.3533821 0.5350298 15.37928 1.099126 -36.42878 2.821193 -0 24.09504 -0 0.4726522 -9.151786 -12.50554 -3.86632 8.831587 -9.814383 -0 19.50342 -0 -8.270833 -21.8949 6.096044 -3.060837 -7.930412 -0.2489412 1.107064 7.990844 -8.546625 3.695896 22.78717 3.52923 0.7254323 -11.8343 7.544255 0.7367094 -11.12537 7.522416 91.00651 20.82276 -18.33858 -0 0 4.704643 -18.83827 11.01013 8.295123 5.828843 -20.29414 -4.840378 -76.94522 23.96354 -3.06687 0 0 -25.2393 3.56678 10.00667 8.400955
